<svg>
    <defs>
    
        <symbol id="up-arrow" viewBox="0 0 32 32">
            <path
                d="M16 0c-8.873 0-16 7.127-16 16s7.127 16 16 16 16-7.127 16-16-7.127-16-16-16zM16 25.455c-5.236 0-9.455-4.218-9.455-9.455s4.218-9.455 9.455-9.455 9.455 4.218 9.455 9.455-4.218 9.455-9.455 9.455z">
            </path>
            <path
                d="M16 9.455c-3.636 0-6.545 2.909-6.545 6.545s2.909 6.545 6.545 6.545 6.545-2.909 6.545-6.545-2.909-6.545-6.545-6.545zM20 18.109l-1.236 0.727c-0.073 0.073-0.218 0.073-0.364 0.073-0.218 0-0.364-0.073-0.509-0.218l-1.309-1.527c-0.291-0.364-0.8-0.364-1.091 0l-1.309 1.527c-0.145 0.145-0.291 0.218-0.509 0.218-0.145 0-0.291 0-0.364-0.073l-1.236-0.727c-0.218-0.145-0.364-0.364-0.364-0.655 0-0.145 0-0.218 0.073-0.364l0.073-0.073 3.636-4.364c0.145-0.145 0.364-0.291 0.582-0.291s0.436 0.073 0.582 0.291l3.636 4.364 0.073 0.073c0.073 0.145 0.073 0.218 0.073 0.364-0.073 0.218-0.218 0.509-0.436 0.655z">
            </path>
        </symbol>
    </defs>
</svg>